<?xml version="1.0" standalone="no"?>
<!DOCTYPE svg PUBLIC "-//W3C//DTD SVG 20010904//EN"
 "http://www.w3.org/TR/2001/REC-SVG-20010904/DTD/svg10.dtd">
<svg version="1.0" xmlns="http://www.w3.org/2000/svg"
width="600.000000pt" height="600.000000pt" viewBox="0 0 600.000000 600.000000"
preserveAspectRatio="xMidYMid meet">

<g transform="translate(0.000000,600.000000) scale(0.100000,-0.100000)"
fill="#50C878" stroke="none">
<path d="M2480 5703 c-157 -125 -427 -341 -600 -479 -173 -138 -353 -282 -400
-320 -138 -113 -334 -271 -505 -408 -88 -71 -165 -135 -171 -142 -14 -18 -7
-3790 7 -3786 5 1 58 44 118 95 59 52 165 140 234 198 l127 104 0 1585 1 1585
42 32 c23 18 98 75 167 128 69 52 150 115 180 139 30 24 96 76 145 116 l90 71
3 -1918 c1 -1055 0 -1923 -2 -1929 -3 -7 -84 6 -236 37 l-233 48 -111 -96
c-61 -53 -151 -131 -201 -174 -49 -42 -109 -92 -132 -111 -50 -39 -52 -48 -15
-48 15 0 124 -18 242 -41 118 -22 238 -44 265 -49 28 -4 169 -31 315 -59 336
-64 657 -125 829 -157 74 -13 138 -27 142 -30 5 -3 9 108 9 245 0 138 -2 251
-5 251 -17 0 -359 71 -364 75 -3 3 -5 368 -6 810 l0 804 360 152 c198 84 434
184 525 222 186 78 459 193 568 240 l72 31 0 863 0 862 -37 10 c-21 6 -261 55
-533 110 -431 87 -744 150 -955 194 l-59 13 199 159 c110 87 219 175 243 194
103 86 93 80 142 71 88 -18 368 -69 540 -99 96 -17 326 -58 512 -91 185 -33
344 -60 355 -60 10 0 56 33 103 72 47 39 153 129 237 199 l152 127 -87 16
c-249 47 -703 131 -817 151 -71 13 -317 58 -545 100 -228 42 -449 83 -490 90
-41 8 -88 17 -105 20 -28 6 -53 -13 -315 -222z m110 -1284 c80 -16 298 -59
485 -94 187 -36 348 -68 358 -71 17 -5 18 -33 16 -501 l-2 -496 -41 -17 c-23
-10 -113 -48 -201 -85 -249 -105 -507 -217 -653 -284 -73 -34 -135 -61 -137
-61 -2 0 -4 372 -5 826 -1 789 0 826 17 819 10 -3 83 -20 163 -36z"/>
<path d="M4929 5392 c-31 -26 -119 -99 -195 -162 -76 -63 -158 -132 -181 -154
l-43 -39 0 -1572 0 -1573 -52 -44 c-29 -24 -170 -139 -313 -254 -143 -115
-309 -249 -370 -298 -105 -84 -477 -382 -708 -565 l-108 -86 2 -291 c0 -160 4
-296 9 -303 6 -10 62 29 206 142 203 159 1004 801 1097 880 29 23 113 91 187
149 74 59 191 152 260 208 69 55 160 128 202 163 l78 62 0 1893 c0 1040 -3
1892 -7 1892 -5 -1 -33 -22 -64 -48z"/>
</g>
</svg>
