<svg width="151" height="157" viewBox="0 0 151 157" fill="none" xmlns="http://www.w3.org/2000/svg">
<path d="M109.968 105.575L77.1683 88.1422C72.1092 86.0647 73.4337 94.4284 75.1917 99.6071L84.5273 127.107C86.0643 133.113 89.142 134.149 94.8391 131.637C104.452 127.11 109.636 123.545 113.638 112.761C114.424 107.99 113.231 107.147 109.968 105.575Z" fill="#F48500"/>
<path d="M67.3877 122.475L63.8186 88.8957C62.8075 84.0253 57.1524 89.194 54.1135 93.1321L38.1462 113.824C34.3946 117.973 35.1829 120.826 39.9863 123.909C48.31 128.968 53.6474 131.14 63.8334 128.83C67.8373 127.059 67.8653 125.734 67.3877 122.475Z" fill="#43A047"/>
<path d="M30.1007 93.084L59.396 76.9846C63.459 74.198 56.66 70.9388 51.9123 69.6227L27.287 62.7968C22.1341 60.9163 19.8226 62.7317 18.7697 68.3409C17.2044 77.9525 17.178 83.7067 23.0093 92.2269C26.0877 95.2471 27.3054 94.7677 30.1007 93.084Z" fill="#CF2C91"/>
<path d="M41.6215 47.8485L62.7229 66.1865C66.0841 68.5698 66.677 62.292 66.3377 58.1856L64.5777 36.8869C64.5643 32.2994 62.4715 31.01 57.7651 31.8048C49.7695 33.3543 45.246 34.9966 40.2446 42.0354C38.7641 45.3242 39.4922 46.1413 41.6215 47.8485Z" fill="#1F80FF"/>
<path d="M85.0456 31.437L72.6183 63.1451C71.2594 67.9688 78.7507 65.7819 83.2607 63.5969L107.484 51.8608C112.815 49.7577 113.432 46.8539 110.521 42.0054C105.345 33.8593 101.525 29.5991 91.2267 27.2665C86.7762 27.1246 86.1329 28.3026 85.0456 31.437Z" fill="#43A047"/>
</svg>
